<svg width="32" height="31" viewBox="0 0 32 31" fill="none" xmlns="http://www.w3.org/2000/svg">
<path d="M28.619 31L17.7575 20.15C16.8955 20.8389 15.9042 21.3843 14.7836 21.7861C13.663 22.188 12.4705 22.3889 11.2062 22.3889C8.07423 22.3889 5.42352 21.3053 3.25411 19.1382C1.0847 16.9711 0 14.3231 0 11.1944C0 8.06574 1.0847 5.41782 3.25411 3.25069C5.42352 1.08356 8.07423 0 11.2062 0C14.3382 0 16.9889 1.08356 19.1583 3.25069C21.3277 5.41782 22.4124 8.06574 22.4124 11.1944C22.4124 12.4574 22.2113 13.6486 21.809 14.7681C21.4068 15.8875 20.8608 16.8778 20.1712 17.7389L31.0326 28.5889L28.619 31ZM11.2062 18.9444C13.3613 18.9444 15.193 18.191 16.7016 16.684C18.2101 15.1771 18.9644 13.3472 18.9644 11.1944C18.9644 9.04167 18.2101 7.21181 16.7016 5.70486C15.193 4.19792 13.3613 3.44444 11.2062 3.44444C9.05118 3.44444 7.21939 4.19792 5.71086 5.70486C4.20233 7.21181 3.44807 9.04167 3.44807 11.1944C3.44807 13.3472 4.20233 15.1771 5.71086 16.684C7.21939 18.191 9.05118 18.9444 11.2062 18.9444Z" fill="#474747"/>
</svg>
